<?xml version="1.0" encoding="utf-8"?>
<!-- Generator: Adobe Illustrator 18.1.1, SVG Export Plug-In . SVG Version: 6.00 Build 0)  -->
<svg version="1.1" id="Layer_1" xmlns="http://www.w3.org/2000/svg" xmlns:xlink="http://www.w3.org/1999/xlink" x="0px" y="0px"
	 width="178.2px" height="35px" viewBox="-208 403.9 178.2 35" enable-background="new -208 403.9 178.2 35" xml:space="preserve">
<g id="NAV">
	<g>
		<g>
			<path fill="#00A1DF" d="M-190.5,403.9c-9.6,0-17.5,7.9-17.5,17.5c0,9.6,7.9,17.5,17.5,17.5s17.5-7.9,17.5-17.5
				C-173,411.8-180.9,403.9-190.5,403.9z M-190.5,437.3c-8.8,0-15.9-7.2-15.9-15.9c0-8.8,7.2-15.9,15.9-15.9s15.9,7.2,15.9,15.9
				C-174.6,430.2-181.7,437.3-190.5,437.3z"/>
			<path fill="#00A1DF" d="M-180.6,416.6c-0.2,0.1-0.4,0.1-0.5,0.2c0.3-0.4,0.5-0.8,0.6-1.2l0.4-1.2l-1,0.6
				c-0.7,0.4-1.4,0.7-2.2,0.9c-0.8-0.8-1.9-1.2-3.1-1.2c-2.5,0-4.5,2-4.5,4.5c0,0.1,0,0.3,0,0.4c-2.9-0.3-5.5-1.7-7.3-4l-0.4-0.5
				l-0.3,0.6c-0.4,0.7-0.6,1.5-0.6,2.2c0,0.9,0.3,1.8,0.8,2.5c0,0-0.1,0-0.1-0.1l-0.7-0.3v0.8c0,1.4,0.6,2.7,1.7,3.5l-0.5-0.1
				l0.1,0.7c0.5,1.4,1.6,2.5,2.9,2.9c-1.4,0.8-3,1.1-4.6,0.9l-2-0.2l1.7,1.1c1.9,1.2,4.1,1.9,6.4,1.9c7.4,0,11.8-6,11.8-11.8
				c0-0.1,0-0.2,0-0.3c0.7-0.6,1.4-1.3,1.9-2l0.9-1.3L-180.6,416.6z"/>
		</g>
		<g>
			<path fill="#00A1DF" d="M-142.8,403.9c-9.6,0-17.5,7.9-17.5,17.5c0,9.6,7.9,17.5,17.5,17.5s17.5-7.9,17.5-17.5
				C-125.3,411.8-133.1,403.9-142.8,403.9z M-142.8,437.3c-8.8,0-15.9-7.2-15.9-15.9c0-8.7,7.1-15.9,15.9-15.9s15.9,7.2,15.9,15.9
				C-126.9,430.1-134,437.3-142.8,437.3z"/>
			<rect x="-151.1" y="418.5" fill="#00A1DF" width="3.7" height="11.1"/>
			<path fill="#00A1DF" d="M-149.3,413.2c-1.3,0-2.1,0.8-2.1,1.9s0.8,1.9,2,1.9l0,0c1.3,0,2.1-0.9,2.1-1.9
				C-147.2,414-148,413.2-149.3,413.2z"/>
			<path fill="#00A1DF" d="M-138.4,418.3c-2,0-2.8,1.1-3.3,1.8v-1.6h-3.7c0,1,0,11.1,0,11.1h3.7v-6.2c0-0.3,0-0.7,0.1-0.9
				c0.3-0.7,0.9-1.3,1.9-1.3c1.3,0,1.9,1,1.9,2.5v5.9h3.7v-6.4C-134.2,419.9-136,418.3-138.4,418.3z"/>
		</g>
		<path fill="#00A1DF" d="M-95,403.9c-9.6,0-17.5,7.9-17.5,17.5c0,9.6,7.8,17.5,17.5,17.5s17.5-7.9,17.5-17.5
			C-77.5,411.8-85.4,403.9-95,403.9z M-94.8,437.3v-10.4h3.9l0.6-4.6h-4.5v-2.9c0-1.3,0.4-2.2,2.3-2.2h2.4v-4.1
			c-0.4-0.1-1.8-0.2-3.5-0.2c-3.5,0-5.9,2.1-5.9,6v3.4h-3.9v4.6h3.9v9.8c-6.6-1.9-11.5-8.1-11.5-15.3c0-8.8,7.2-15.9,15.9-15.9
			c8.8,0,15.9,7.2,15.9,15.9C-79.1,430.1-86.1,437.2-94.8,437.3z"/>
		<g>
			<path fill="#00A1DF" d="M-47.3,403.9c-9.6,0-17.5,7.9-17.5,17.5c0,9.6,7.9,17.5,17.5,17.5s17.5-7.9,17.5-17.5
				C-29.8,411.8-37.6,403.9-47.3,403.9z M-47.3,437.3c-8.8,0-15.9-7.2-15.9-15.9c0-8.7,7.2-15.9,15.9-15.9c8.8,0,15.9,7.2,15.9,15.9
				C-31.4,430.1-38.5,437.3-47.3,437.3z"/>
			<polygon fill="#00A1DF" points="-52.4,429.1 -38.2,421.7 -52.4,414.3 			"/>
		</g>
	</g>
</g>
<g id="Grid" display="none">
	<g display="inline">
		<rect x="-191.5" y="107" fill="#D1D3D4" width="20" height="5430"/>
		<rect x="-233.5" y="107" fill="#A7A9AC" width="42" height="5430"/>
		<rect x="-129.5" y="107" fill="#D1D3D4" width="20" height="5430"/>
		<rect x="-171.5" y="107" fill="#A7A9AC" width="42" height="5430"/>
		<rect x="-67.5" y="107" fill="#D1D3D4" width="20" height="5430"/>
		<rect x="-109.5" y="107" fill="#A7A9AC" width="42" height="5430"/>
		<rect x="-47.5" y="107" fill="#A7A9AC" width="42" height="5430"/>
	</g>
</g>
</svg>
